<?xml version="1.0" encoding="utf-8"?>
<!-- Generator: Adobe Illustrator 15.0.1, SVG Export Plug-In . SVG Version: 6.00 Build 0)  -->
<!DOCTYPE svg PUBLIC "-//W3C//DTD SVG 1.1//EN" "http://www.w3.org/Graphics/SVG/1.1/DTD/svg11.dtd">
<svg version="1.1" xmlns="http://www.w3.org/2000/svg" width="160px" height="220px" viewBox="0 0 160 220">
<g>
	<path fill="#85B916" d="M31.479,214.286c3.275,0,5.592-1.34,7.529-3.372l2.211,1.989c-2.396,2.678-5.307,4.479-9.833,4.479
		c-6.563,0-11.914-5.037-11.914-12.473c0-6.926,4.849-12.471,11.456-12.471c7.059,0,11.127,5.635,11.127,12.656
		c0,0.325,0,0.693-0.044,1.108H23.07C23.578,211.379,27.275,214.286,31.479,214.286z M38.458,203.57
		c-0.372-4.341-2.867-8.13-7.629-8.13c-4.148,0-7.294,3.468-7.759,8.13H38.458z"/>
	<path fill="#41291D" d="M60.391,205.419h-7.852v11.41h-3.647v-32.335h12.105c7.294,0,12.1,3.882,12.1,10.303
		C73.097,201.818,67.275,205.419,60.391,205.419z M60.712,187.867h-8.173v14.224h7.994c5.355,0,8.866-2.861,8.866-7.158
		C69.399,190.27,65.938,187.867,60.712,187.867z M106.162,203.013c0,9.425-5.399,14.322-13.486,14.322
		c-7.988,0-13.437-4.896-13.437-14.042v-18.799h3.646v18.569c0,6.973,3.697,10.901,9.889,10.901c5.957,0,9.747-3.606,9.747-10.671
		v-18.799h3.641V203.013z M138.731,192.579c0,4.248-2.588,6.419-5.127,7.53c3.833,1.151,6.923,3.368,6.923,7.852
		c0,5.584-4.663,8.868-11.728,8.868h-14.595v-32.335h13.994C134.57,184.493,138.731,187.632,138.731,192.579z M135.035,193.087
		c0-3.235-2.545-5.313-7.158-5.313h-10.074v11.134h9.795C131.982,198.908,135.035,196.92,135.035,193.087z M136.837,207.729
		c0-3.558-2.96-5.589-8.595-5.589h-10.439v11.406h11.09C133.79,213.545,136.837,211.379,136.837,207.729z"/>
</g>
<path fill="#85B916" d="M79.998,130.406l-49.316-49.32l49.316-49.313l16.44,16.437l-32.88,32.876l16.439,16.44l49.316-49.313
	l-42.96-42.96c-3.508-3.511-9.198-3.511-12.709,0L4.161,74.736c-3.508,3.508-3.508,9.198,0,12.709l69.484,69.481
	c3.511,3.511,9.201,3.511,12.709,0l69.484-69.481c3.508-3.511,3.508-9.201,0-12.709l-10.087-10.084L79.998,130.406z"/>
</svg>
