<?xml version="1.0" encoding="utf-8"?>
<!-- Generator: Adobe Illustrator 19.1.0, SVG Export Plug-In . SVG Version: 6.00 Build 0)  -->
<svg version="1.1" id="horizontal" xmlns="http://www.w3.org/2000/svg" xmlns:xlink="http://www.w3.org/1999/xlink" x="0px" y="0px"
	 viewBox="0 0 500 120" style="enable-background:new 0 0 500 120;" xml:space="preserve">
<g id="saltStack_x5F_icon_x5F_thicker_2_">
	<g>
		<path d="M49.4,1.7c1.7-1.2,3.2-1,5,0c5,3,10,5.9,15.1,8.7c0.5,0.3,1.4,0.1,1.9-0.1c5-2.8,9.9-5.6,14.8-8.6c1.7-1,3.1-1.2,4.8-0.1
			c7.5,4.4,15.1,8.8,22.7,13.1c1.6,0.9,2.3,2.1,2.3,3.9c-0.1,8.8-0.1,17.6,0,26.4c0,1.7-0.6,2.8-2.1,3.7c-4.5,2.5-8.9,5.1-13.4,7.7
			c3.2,2.6,3.2,2.6,3.2,6.7c0,8.2,0,16.4,0,24.7c0,1.6-0.6,2.5-2,3.3c-15.6,9-31.2,17.9-46.7,27c-2.2,1.3-3.8,1.3-6,0
			c-15.5-9.1-31.1-18.1-46.7-27c-1.5-0.8-2.1-2-2.1-3.6c0-18.3,0-36.7,0-55c0-1.6,0.6-2.7,2-3.5L49.4,1.7z M49.3,63.1
			c0-1.1-0.3-1.7-1.2-2.2L5.4,36.4l0,48.9c0,1.2,0.4,1.8,1.4,2.4l42.3,24.4L49.3,63.1z M96.9,87.6c1-0.6,1.4-1.1,1.4-2.3l-0.1-20.5
			L78.4,76.1c-2.8,1.6-4.7,0.5-4.7-2.7c0-7,0-14,0-21c0-0.5,0-1.1-0.1-1.8L55.6,61c-0.9,0.5-1.1,1.2-1.1,2.1l0,49L96.9,87.6z
			 M50.7,56.4c0.8,0.5,1.4,0.5,2.2,0c3.4-2.1,6.9-4,10.4-6c2.5-1.4,4.9-2.9,7.6-4.5c-1-0.6-1.8-1.1-2.6-1.5
			c-5.9-3.4-11.7-6.8-17.6-10.2c-2.2-1.3-2.2-3.7,0-5c3.1-1.8,6.1-3.6,9.2-5.3c1-0.5,1.5-1.2,1.3-2.3c-0.1-0.5,0-0.9,0-1.4
			c-0.3-2.6,0.1-4.8,2.9-5.9c0.1,0,0.2-0.2,0.3-0.4c-3.9-2.2-7.8-4.4-11.6-6.7c-1-0.6-1.6-0.5-2.5,0L8.2,31.7L50.7,56.4z
			 M107.8,17.6c-0.4-0.3-0.5-0.4-0.6-0.4c-5.9-3.4-11.8-6.8-17.7-10.2c-0.4-0.2-1.3-0.2-1.8,0.1c-5.3,3-10.5,6-15.7,9
			c-0.7,0.4-1.4,0.9-2.4,1.4c0.4,0.2,0.5,0.3,0.6,0.4c5.9,3.4,11.8,6.8,17.7,10.2c0.4,0.2,1.3,0.1,1.8-0.1c2.6-1.4,5.1-2.9,7.6-4.3
			C100.7,21.7,104.1,19.7,107.8,17.6z M109.7,44.8c0.5-0.3,0.8-1.1,0.8-1.7c0.1-6.4,0-12.8,0-19.3c0-0.4-0.1-0.8-0.1-1.2
			c-0.3,0-0.4,0-0.5,0c-5.9,3.4-11.8,6.8-17.7,10.3c-0.5,0.3-0.8,1.1-0.8,1.7l0,20.7L109.7,44.8z M66.8,22.3c0,4.8,0,9.2,0,13.7
			c0,1,0.4,1.6,1.2,2c3.1,1.8,6.2,3.6,9.4,5.4c1.3,0.7,1.8,1.7,1.8,3.1c0,1.3,0,2.7,0,4c0,0.4,0.1,1,0.4,1.2c2,1.3,4.1,2.4,6.3,3.7
			c0.1-0.5,0.2-0.7,0.2-0.9c0-6.7,0-13.5,0-20.2c0-0.5-0.5-1.2-1-1.5L66.8,22.3z M79.3,57.8c0,4,0,7.7,0,11.7
			c5.5-3.2,10.8-6.2,16-9.3c-0.1-0.2-0.2-0.4-0.3-0.5c-0.4,0.1-0.8,0.3-1.1,0.4c-1.1,0.6-2.2,1.2-3.2,1.9c-1.3,0.9-2.6,0.9-4,0.1
			C84.3,60.6,81.8,59.3,79.3,57.8z M57.2,31.7c1.5,0.9,2.7,1.6,4,2.3c0-1.7,0-3.1,0-4.7C59.9,30.2,58.7,30.9,57.2,31.7z"/>
	</g>
</g>
<polygon points="480.7,57.1 499.5,37.6 487.5,37.6 468.6,57.6 468.6,37.6 459.1,37.6 459.1,82.4 468.6,82.4 468.6,69.4 474.2,63.7 
	488.4,82.4 500,82.4 "/>
<path d="M446.7,68.9c-3.5,3.3-6.7,5.3-11.6,5.3c-7.5,0-13.1-6.1-13.1-14.3c0-8,5.6-14.1,13.1-14.1c4.1,0,7.5,1.6,11.3,5l0.8,0.7
	l6.2-7.1l-0.7-0.7c-3.6-3.4-8.5-6.9-17.4-6.9c-13.2,0-23.1,9.9-23.1,23.2c0,12.9,10,23,22.8,23c7.4,0,12.8-2.4,18.1-7.9l0.7-0.7
	l-6.2-6.3L446.7,68.9z"/>
<path d="M383.8,37.3l-19.7,45.1h9.9l4.4-10.3h12.1l3.2-8.5l8,18.8h10.1l-19.7-45.1H383.8z M382,63.4l5.8-13.5l5.8,13.5H382z"/>
<polygon points="367.9,37.6 331.2,37.6 331.2,46.6 344.7,46.6 344.7,82.4 354.3,82.4 354.3,46.6 367.9,46.6 "/>
<path d="M313.8,55.6c-8.4-2-9.4-3.4-9.4-5.9c0-2.4,2.4-4.1,6-4.1c3.6,0,7.2,1.4,11,4.2l0.8,0.6l5.2-7.3l-0.7-0.6
	c-4.7-3.8-10-5.6-16.1-5.6c-9.2,0-15.6,5.5-15.6,13.5c0,8.5,5.5,11.4,15,13.7c8.3,1.9,8.9,3.5,8.9,5.7c0,2.7-2.6,4.4-6.6,4.4
	c-4.7,0-8.6-1.6-12.9-5.3l-0.8-0.7l-5.8,6.9l0.7,0.6c5.2,4.7,11.6,7.1,18.5,7.1c9.9,0,16.3-5.4,16.3-13.9
	C328.3,60.3,321.3,57.4,313.8,55.6z"/>
<polygon points="254.1,44.1 268.5,44.1 268.5,82.4 275.4,82.4 275.4,44.1 289.7,44.1 289.7,37.6 254.1,37.6 "/>
<polygon points="232.3,37.6 225.5,37.6 225.5,82.4 256.4,82.4 256.4,75.9 232.3,75.9 "/>
<path d="M193.4,37.3L173,82.4h7.2l5.1-11.3h17.3l2.1-5.8l7.6,17.1h7.4l-20.4-45.1H193.4z M188,64.7l8.2-18.4l8.1,18.4H188z"/>
<path d="M155.5,56.7c-10-2.2-10.8-4.5-10.8-7.5c0-3.5,3.3-5.9,8.1-5.9c4.3,0,8,1.4,11.7,4.4l0.8,0.7l4-5.3l-0.8-0.6
	c-4.8-3.8-9.5-5.5-15.7-5.5c-8.7,0-15,5.3-15,12.8c0,8.3,6.1,11.4,15.1,13.3c9.6,2,10.3,4.3,10.3,7.3c0,3.8-3.4,6.3-8.5,6.3
	c-5.4,0-9.4-1.7-14-5.8l-0.8-0.7l-4.3,5.1l0.7,0.7c5.4,4.8,11.2,7.1,18.2,7.1c9.2,0,15.6-5.4,15.6-13.2
	C170.3,62.9,165.9,58.9,155.5,56.7z"/>
</svg>
