<?xml version="1.0" encoding="utf-8"?>
<!-- Generator: Adobe Illustrator 18.1.1, SVG Export Plug-In . SVG Version: 6.00 Build 0)  -->
<svg version="1.1" id="Layer_1" xmlns="http://www.w3.org/2000/svg" xmlns:xlink="http://www.w3.org/1999/xlink" x="0px" y="0px"
	 viewBox="0 0 257.5 65" enable-background="new 0 0 257.5 65" xml:space="preserve">
<g>
	<path d="M162.6,29.3c-4.2-1-4.7-1.7-4.7-2.9c0-1.2,1.2-2,3-2c1.8,0,3.6,0.7,5.5,2.1l0.4,0.3l2.6-3.6l-0.4-0.3c-2.3-1.9-5-2.8-8-2.8
		c-4.6,0-7.8,2.8-7.8,6.8c0,4.2,2.7,5.7,7.5,6.9c4.1,1,4.4,1.7,4.4,2.8c0,1.3-1.3,2.2-3.3,2.2c-2.3,0-4.3-0.8-6.4-2.6l-0.4-0.3
		l-2.9,3.4l0.4,0.3c2.6,2.3,5.8,3.5,9.2,3.5c4.9,0,8.1-2.7,8.1-6.9C169.8,31.7,166.4,30.2,162.6,29.3z"/>
	<polygon points="189.6,20.3 171.3,20.3 171.3,24.8 178.1,24.8 178.1,42.7 182.8,42.7 182.8,24.8 189.6,24.8 	"/>
	<path d="M197.6,20.2l-9.8,22.5h4.9l2.2-5.1h6l1.6-4.2l4,9.4h5.1l-9.8-22.5H197.6z M196.7,33.2l2.9-6.8l2.9,6.8H196.7z"/>
	<path d="M228.9,36c-1.7,1.6-3.3,2.6-5.8,2.6c-3.7,0-6.5-3-6.5-7.1c0-4,2.8-7,6.5-7c2,0,3.8,0.8,5.6,2.5l0.4,0.4l3.1-3.5l-0.3-0.3
		c-1.8-1.7-4.2-3.5-8.7-3.5c-6.6,0-11.5,5-11.5,11.6c0,6.4,5,11.5,11.4,11.5c3.7,0,6.4-1.2,9-3.9l0.3-0.4l-3.1-3.1L228.9,36z"/>
	<polygon points="245.9,30.1 255.3,20.3 249.3,20.3 239.8,30.3 239.8,20.3 235.1,20.3 235.1,42.7 239.8,42.7 239.8,36.2 242.6,33.3 
		249.7,42.7 255.5,42.7 	"/>
	<path d="M83.7,29.9c-5-1.1-5.4-2.2-5.4-3.7c0-1.7,1.7-2.9,4-2.9c2.1,0,4,0.7,5.8,2.2l0.4,0.3l2-2.7l-0.4-0.3
		c-2.4-1.9-4.7-2.7-7.8-2.7c-4.3,0-7.5,2.7-7.5,6.4c0,4.2,3,5.7,7.6,6.6c4.8,1,5.1,2.2,5.1,3.6c0,1.9-1.7,3.1-4.3,3.1
		c-2.7,0-4.7-0.8-7-2.9L76,36.6l-2.1,2.5l0.4,0.3c2.7,2.4,5.6,3.5,9.1,3.5c4.6,0,7.8-2.7,7.8-6.6C91,32.9,88.8,31,83.7,29.9z"/>
	<path d="M102.6,20.2L92.4,42.7H96l2.5-5.6h8.6l1.1-2.9l3.8,8.5h3.7l-10.2-22.5H102.6z M99.9,33.9l4.1-9.2l4.1,9.2H99.9z"/>
	<polygon points="122,20.3 118.6,20.3 118.6,42.7 134,42.7 134,39.4 122,39.4 	"/>
	<polygon points="132.9,23.6 140,23.6 140,42.7 143.5,42.7 143.5,23.6 150.6,23.6 150.6,20.3 132.9,20.3 	"/>
</g>
<path fill="#010101" d="M63.9,12.2L48.6,3.3L37.7,9.6l-8.9-5L3.9,19v28.9l25,14.4l25-14.4V35.7l10-5.8V12.2z M59.6,13l-11,6.4
	l-11-6.4l11-6.4L59.6,13z M31.5,19.8l1.8-1l0,2l-0.7-0.4l0,0L31.5,19.8z M36.1,15.5l11,6.4v12.7L42,31.5v-5.7l-5.9-3.4L36.1,15.5z
	 M42,34.8l4,2.4l-4,2.3V34.8z M28.9,7.5l6.3,3.5l-1.9,1.1l0,3.6l-6.9,3.9l3.4,2l8.4,4.9L28.9,32L7.7,19.8L28.9,7.5z M6.5,22
	l21.2,12.2v24.4L6.5,46.4V22z M51.3,46.4L30.2,58.6V34.2l9.3-5.4V44l9.1-5.2l0,0l2.8-1.6V46.4z M50,34.6V21.9l11-6.4v12.8L50,34.6z"
	/>
</svg>
