<svg id="Layer_1" data-name="Layer 1" xmlns="http://www.w3.org/2000/svg" viewBox="0 0 251.6 58.99"><defs><style>.cls-1{fill:#fff;}</style></defs><title>SaltStack - White</title><path class="cls-1" d="M162.94,30.48c-4.21-1-4.67-1.68-4.67-2.93s1.2-2,3-2a9.15,9.15,0,0,1,5.49,2.09l0.41,0.31,2.58-3.64L169.36,24a12.39,12.39,0,0,0-8-2.8c-4.59,0-7.79,2.75-7.79,6.75,0,4.22,2.75,5.71,7.49,6.85,4.12,1,4.43,1.72,4.43,2.84,0,1.32-1.29,2.18-3.28,2.18a9.26,9.26,0,0,1-6.41-2.65l-0.38-.33-2.89,3.43,0.36,0.32a13.65,13.65,0,0,0,9.24,3.54c4.93,0,8.11-2.7,8.11-6.94S166.7,31.4,162.94,30.48Z" transform="translate(-4.23 -4.49)"/><polygon class="cls-1" points="185.7 17.02 167.4 17.02 167.4 21.49 174.16 21.49 174.16 39.35 178.94 39.35 178.94 21.49 185.7 21.49 185.7 17.02"/><path class="cls-1" d="M197.88,21.36l-9.82,22.49H193l2.19-5.15h6l1.58-4.21,4,9.36h5.06L202,21.36h-4.13Zm-0.89,13,2.9-6.76,2.87,6.76H197Z" transform="translate(-4.23 -4.49)"/><path class="cls-1" d="M229.24,37.12c-1.75,1.63-3.32,2.64-5.79,2.64-3.73,0-6.54-3-6.54-7.15s2.81-7,6.54-7a7.94,7.94,0,0,1,5.63,2.52l0.38,0.35,3.07-3.52-0.35-.33a11.58,11.58,0,0,0-8.7-3.46A11.28,11.28,0,0,0,212,32.74a11.29,11.29,0,0,0,11.36,11.47,11.55,11.55,0,0,0,9-3.93l0.34-.35-3.09-3.14Z" transform="translate(-4.23 -4.49)"/><polygon class="cls-1" points="241.98 26.73 251.36 17.02 245.37 17.02 235.93 26.99 235.93 17.02 231.18 17.02 231.18 39.35 235.93 39.35 235.93 32.87 238.71 30.02 245.8 39.35 251.6 39.35 241.98 26.73"/><path class="cls-1" d="M84,31c-5-1.07-5.4-2.24-5.4-3.72,0-1.73,1.66-2.94,4-2.94a8.89,8.89,0,0,1,5.84,2.2l0.4,0.33,2-2.66-0.38-.3a11.59,11.59,0,0,0-7.82-2.73c-4.35,0-7.5,2.66-7.5,6.39,0,4.16,3,5.66,7.55,6.65,4.77,1,5.15,2.16,5.15,3.63,0,1.87-1.71,3.13-4.25,3.13a9.64,9.64,0,0,1-7-2.89l-0.38-.35-2.14,2.53,0.36,0.32a12.9,12.9,0,0,0,9.06,3.54c4.58,0,7.78-2.69,7.78-6.59C91.37,34.1,89.17,32.15,84,31Z" transform="translate(-4.23 -4.49)"/><path class="cls-1" d="M102.89,21.36L92.72,43.84h3.57l2.54-5.64h8.61l1.06-2.89,3.78,8.53H116L105.8,21.36h-2.91ZM100.21,35l4.1-9.15L108.37,35h-8.16Z" transform="translate(-4.23 -4.49)"/><polygon class="cls-1" points="118.08 17.02 114.67 17.02 114.67 39.35 130.09 39.35 130.09 36.13 118.08 36.13 118.08 17.02"/><polygon class="cls-1" points="128.97 20.24 136.13 20.24 136.13 39.35 139.56 39.35 139.56 20.24 146.73 20.24 146.73 17.02 128.97 17.02 128.97 20.24"/><path class="cls-1" d="M64.26,13.35L48.92,4.49,38.08,10.75l-8.86-5-25,14.43V49l25,14.43L54.22,49V36.85l10-5.8V13.35ZM60,14.17l-11,6.38-11-6.38,11-6.38ZM31.81,20.93l1.78-1v2l-0.74-.43h0Zm4.64-4.28,11,6.38V35.74l-5.13-3.06V27l-5.92-3.42v-7ZM42.36,36l4,2.39-4,2.31V36ZM29.23,8.71l6.27,3.53-1.92,1.11V17l-6.94,3.93,3.43,2,8.45,4.88-9.3,5.37L8.07,20.92ZM6.79,23.14L27.95,35.35V59.78L6.79,47.57V23.14ZM51.66,47.57L30.51,59.78V35.35L39.8,30V45.15l9.08-5.24h0l2.75-1.59v9.23ZM50.35,35.78V23l11-6.38V29.4Z" transform="translate(-4.23 -4.49)"/></svg>