<svg xmlns="http://www.w3.org/2000/svg" viewBox="0 0 301.57 44.47"><defs><style>.cls-1{fill:#fff;}</style></defs><title>Asset 2</title><g id="Layer_2" data-name="Layer 2"><g id="Layer_1-2" data-name="Layer 1"><path class="cls-1" d="M50.63,6.05h8.79L72.58,43.24H64.15L61.7,35.6H48l-2.52,7.64H37.35Zm-.51,23.14h9.52l-4.7-14.64Z"/><path class="cls-1" d="M76.12,6.05h7.77V36.56h18.58v6.68H76.12Z"/><path class="cls-1" d="M127.07,6.05v6.58H115.94V43.24h-7.82V12.63H96.94V6.05Z"/><path class="cls-1" d="M190.53,6.05v6.58H179.41V43.24h-7.83V12.63H160.4V6.05Z"/><path class="cls-1" d="M200.41,6.05h8.8l13.16,37.19h-8.43l-2.45-7.64h-13.7l-2.52,7.64h-8.13Zm-.51,23.14h9.53l-4.7-14.64Z"/><path class="cls-1" d="M227.91,10.17a15.34,15.34,0,0,1,11.34-4.83q9.28-.2,13.71,5.87a13.46,13.46,0,0,1,2.69,6.89l-7.77.16a10.78,10.78,0,0,0-2-4A7.68,7.68,0,0,0,239.68,12a7.59,7.59,0,0,0-6.48,3.56Q230.88,19,231,25.25t2.73,9.32a7.91,7.91,0,0,0,6.49,3,7.27,7.27,0,0,0,6-2.8,11.86,11.86,0,0,0,1.84-4.35l7.72-.17a16.79,16.79,0,0,1-4.9,10,14.83,14.83,0,0,1-10.44,4q-7.94.16-12.59-4.88t-4.84-14.09Q222.85,15.56,227.91,10.17Z"/><path class="cls-1" d="M260.39,6.05H268V21.37L282.4,6.05h10.05L277.18,21.34l16.05,21.9h-10L271.78,27,268,30.8V43.24h-7.64Z"/><path class="cls-1" d="M15.65,12.47a9.05,9.05,0,0,1,4.6-1.05,10.15,10.15,0,0,1,4.63.94,5.29,5.29,0,0,1,3,4.77h7.47a11.06,11.06,0,0,0-4.4-9A16.57,16.57,0,0,0,20.79,5a23,23,0,0,0-5.14.54Z"/><path class="cls-1" d="M33.21,24.77a16.6,16.6,0,0,0-6.43-2.7l-6.53-1.54A22.45,22.45,0,0,1,15.31,19a3.18,3.18,0,0,1-1.81-3c0-.12,0-.22,0-.34H6.35c0,.3,0,.59,0,.9q0,5.47,3.76,8.05,2.22,1.54,8.15,2.85l4,.89a17.48,17.48,0,0,1,5.17,1.74A3.17,3.17,0,0,1,29,33c0,2.1-1.1,3.54-3.32,4.31a14.08,14.08,0,0,1-4.56.61c-3.13,0-5.33-.77-6.62-2.3a7.48,7.48,0,0,1-1.42-3.81H5.7a11,11,0,0,0,4.21,9.12q4.22,3.33,11.56,3.32,7.19,0,11.13-3.37a10.64,10.64,0,0,0,3.94-8.46A9.1,9.1,0,0,0,33.21,24.77Z"/><path class="cls-1" d="M137.55,12.73a9,9,0,0,1,4.6-1.05,10.18,10.18,0,0,1,4.63.94,5.33,5.33,0,0,1,3,4.77h7.47a11,11,0,0,0-4.41-9,16.54,16.54,0,0,0-10.15-3.12,23,23,0,0,0-5.14.54Z"/><path class="cls-1" d="M155.11,25a16.83,16.83,0,0,0-6.43-2.7l-6.53-1.54a21.71,21.71,0,0,1-4.94-1.54,3.17,3.17,0,0,1-1.81-3c0-.13,0-.23,0-.35h-7.19c0,.3-.05.6-.05.9,0,3.65,1.26,6.34,3.77,8.05,1.48,1,4.19,2,8.15,2.85l4,.89a17.29,17.29,0,0,1,5.16,1.74,3.16,3.16,0,0,1,1.63,2.85q0,3.15-3.32,4.32a14.39,14.39,0,0,1-4.56.6c-3.13,0-5.34-.76-6.62-2.3A7.48,7.48,0,0,1,135,32H127.6a11,11,0,0,0,4.21,9.13c2.8,2.21,6.66,3.32,11.55,3.32s8.51-1.13,11.14-3.37a10.7,10.7,0,0,0,3.94-8.47A9.1,9.1,0,0,0,155.11,25Z"/><rect class="cls-1" width="9.85" height="9.85"/><path class="cls-1" d="M299.8,40.44a.94.94,0,0,0,.16-.57,1.06,1.06,0,0,0-.08-.45.82.82,0,0,0-.24-.32,1,1,0,0,0-.38-.19,1.72,1.72,0,0,0-.52-.07h-1.2v3.4h.59V40.93h.66l.68,1.31h.63v0l-.76-1.42A1,1,0,0,0,299.8,40.44Zm-.59-.14a.52.52,0,0,1-.19.12,1.18,1.18,0,0,1-.28,0h-.61V39.32h.61a.79.79,0,0,1,.28,0,.55.55,0,0,1,.2.11.76.76,0,0,1,.12.19.85.85,0,0,1,0,.23.56.56,0,0,1,0,.23A.36.36,0,0,1,299.21,40.3Z"/><path class="cls-1" d="M298.7,37.68a2.88,2.88,0,1,0,2.87,2.87A2.88,2.88,0,0,0,298.7,37.68Zm0,5.27a2.4,2.4,0,1,1,2.39-2.4A2.41,2.41,0,0,1,298.7,43Z"/></g></g></svg>