<?xml version="1.0" encoding="UTF-8" standalone="no"?>
<!-- Created with Inkscape (http://www.inkscape.org/) -->

<svg
   xmlns:dc="http://purl.org/dc/elements/1.1/"
   xmlns:cc="http://creativecommons.org/ns#"
   xmlns:rdf="http://www.w3.org/1999/02/22-rdf-syntax-ns#"
   xmlns:svg="http://www.w3.org/2000/svg"
   xmlns="http://www.w3.org/2000/svg"
   version="1.1"
   width="141.83417"
   height="144.83875"
   id="svg3008">
  <defs
     id="defs3010" />
  <metadata
     id="metadata3013">
    <rdf:RDF>
      <cc:Work
         rdf:about="">
        <dc:format>image/svg+xml</dc:format>
        <dc:type
           rdf:resource="http://purl.org/dc/dcmitype/StillImage" />
        <dc:title></dc:title>
      </cc:Work>
    </rdf:RDF>
  </metadata>
  <g
     transform="translate(-534.79745,-317.08566)"
     id="layer1">
    <path
       d="m 643.78483,391.58441 0,-32.8075 28.415,-16.39125 0,32.79 -28.415,16.40875 z m -36.4675,-54.79625 -0.84625,0.55125 0.0163,0.8675 0,9.84125 -14.42,8.33125 29.74,17.175 -25.30875,14.58875 -55.01175,-31.76375 55.01175,-31.785 15.9675,9.20875 -5.14875,2.985 z m 34.255,18.14375 -28.415,-16.38875 28.405,-16.4 28.40625,16.4 -28.39625,16.38875 z m -30.63375,7.20375 0,-19.75 28.405,16.39125 0,32.8075 -10.78375,-6.22 -0.0825,-12.185 -0.03,-0.90375 -0.8025,-0.48625 -16.70625,-9.65375 z m 13.385,47.70725 0.0562,3.24563 2.735,-1.74413 26.65,-16.625 0,29.04187 -55.0275,31.78175 0,-63.54737 25.315,-14.6275 0.27125,32.47475 z m 16.51125,-12.29475 -12.10625,7.54475 -0.1225,-14.5785 11.83875,6.845 0.39,0.18875 z m -34.3475,-44.3775 0,6.3975 -5.53125,-3.18875 5.53125,-3.20875 z m -67.2295,7.05125 55.03825,31.77375 0,63.54737 -55.03825,-31.77437 0,-63.54675 z m 103.11825,-42.74375 -0.77375,-0.3925 -0.86001,0.3925 -23.82499,13.76125 -19.58875,-11.3075 -0.775,-0.36375 -0.86875,0.36375 -60.88738,35.16 0.01,0.55 0.01,69.75125 -0.0195,0.81062 0.84963,0.60638 60.394,34.87062 0.4375,0.24363 0.5225,-0.25238 60.40125,-34.86187 0.7575,-0.44625 0.0463,-0.9805 0,-35.6715 -1.1375,-0.66375 18.73,-10.83 0.83249,-0.60625 0,-40.30125 -0.48624,-0.31625 -33.7688,-19.51625"
       id="path40"
       style="fill:#100f0d;fill-opacity:1;fill-rule:nonzero;stroke:none" />
  </g>
</svg>
