<svg xmlns="http://www.w3.org/2000/svg" viewBox="0 0 1859.76 274.21"><title>SaltStack_black</title><g id="Layer_2" data-name="Layer 2"><g id="Layer_1-2" data-name="Layer 1"><path d="M312.22,37.29h54.23l81.16,229.4h-52L380.5,219.53H296l-15.55,47.16H230.33ZM309.06,180h58.75l-29-90.27Z"/><path d="M469.42,37.29h47.94V225.44H631.9v41.25H469.42Z"/><path d="M783.63,37.29V77.91H715V266.69H666.75V77.91H597.81V37.29Z"/><path d="M1175,37.29V77.91h-68.63V266.69h-48.25V77.91H989.18V37.29Z"/><path d="M1235.93,37.29h54.24l81.16,229.4h-52l-15.14-47.16h-84.47l-15.56,47.16h-50.13ZM1232.77,180h58.75l-29-90.27Z"/><path d="M1405.51,62.73q27.1-28.9,69.91-29.8,57.25-1.2,84.53,36.21,15.08,21,16.6,42.46l-47.92,1q-4.92-16.39-12.26-24.65-13.12-14.67-38.27-14.14-25.61.54-39.95,21.93t-13.54,60q.81,38.6,16.82,57.47t40,18.39q24.66-.51,37.25-17.28,7-9,11.31-26.86l47.61-1q-5.37,37.62-30.2,61.65T1483.07,273q-49,1-77.63-30.12-28.7-31.32-29.85-86.85Q1374.33,95.91,1405.51,62.73Z"/><path d="M1605.77,37.29h47.15V131.8l88.63-94.51h61.94l-94.13,94.34,99,135.06h-61.63L1676,166.55,1652.92,190v76.73h-47.15Z"/><path d="M96.5,76.89c7.33-4.24,16.72-6.45,28.39-6.45q17.07,0,28.56,5.76,17.24,8.72,18.51,29.41H218Q216.77,69,190.85,49.82T128.22,30.6A141.21,141.21,0,0,0,96.5,33.92Z"/><path d="M204.83,152.76q-13.22-10.41-39.68-16.65l-40.25-9.49q-23.31-5.45-30.48-9.5-11.17-6.06-11.17-18.36c0-.75.19-1.41.24-2.13H39.16c-.13,1.83-.26,3.66-.26,5.55q0,33.78,23.19,49.65,13.68,9.49,50.3,17.58l24.84,5.46q21.79,4.66,31.85,10.73,10,6.24,10,17.59,0,19.45-20.5,26.61-10.81,3.73-28.13,3.74-28.92,0-40.83-14.17-6.52-7.77-8.74-23.5H35.16q0,35.79,26,56.26t71.25,20.47q44.37,0,68.66-20.78t24.31-52.21Q225.34,169,204.83,152.76Z"/><path d="M848.22,78.5c7.33-4.23,16.73-6.45,28.4-6.45q17.07,0,28.56,5.76,17.22,8.72,18.51,29.41h46.06q-1.26-36.56-27.18-55.79T880,32.21a141.24,141.24,0,0,0-31.73,3.32Z"/><path d="M956.55,154.38q-13.2-10.42-39.67-16.65l-40.26-9.5q-23.29-5.44-30.48-9.49Q835,112.67,835,100.37c0-.75.18-1.4.24-2.12H790.88c-.12,1.83-.26,3.66-.26,5.55q0,33.78,23.19,49.65,13.7,9.48,50.31,17.58L889,176.48q21.81,4.67,31.85,10.74,10.05,6.22,10,17.58,0,19.45-20.5,26.61-10.8,3.74-28.12,3.74-28.92,0-40.84-14.16-6.51-7.78-8.74-23.5H786.89q0,35.79,26,56.25t71.26,20.47q44.35,0,68.66-20.77t24.3-52.21Q977.06,170.56,956.55,154.38Z"/><rect width="60.74" height="60.74"/><path d="M1848.83,249.39a5.89,5.89,0,0,0,1-3.53,6.82,6.82,0,0,0-.51-2.73,5.13,5.13,0,0,0-1.48-2,6.68,6.68,0,0,0-2.38-1.21,11.65,11.65,0,0,0-3.22-.41h-7.37v21h3.64v-8.09h4.07l4.2,8.09h3.91v-.19l-4.71-8.75A6.52,6.52,0,0,0,1848.83,249.39Zm-3.61-.87a3.7,3.7,0,0,1-1.23.72,5.21,5.21,0,0,1-1.71.26h-3.75v-7h3.73a5.44,5.44,0,0,1,1.78.26,2.89,2.89,0,0,1,1.22.72,2.79,2.79,0,0,1,.71,1.12,4.47,4.47,0,0,1,.23,1.46,3.71,3.71,0,0,1-.25,1.4A2.91,2.91,0,0,1,1845.22,248.52Z"/><path d="M1842,232.36a17.73,17.73,0,1,0,17.73,17.72A17.74,17.74,0,0,0,1842,232.36Zm0,32.51a14.79,14.79,0,1,1,14.78-14.79A14.81,14.81,0,0,1,1842,264.87Z"/></g></g></svg>