<?xml version="1.0" encoding="UTF-8" standalone="no"?>
<!-- Created with Inkscape (http://www.inkscape.org/) -->

<svg
   xmlns:dc="http://purl.org/dc/elements/1.1/"
   xmlns:cc="http://creativecommons.org/ns#"
   xmlns:rdf="http://www.w3.org/1999/02/22-rdf-syntax-ns#"
   xmlns:svg="http://www.w3.org/2000/svg"
   xmlns="http://www.w3.org/2000/svg"
   version="1.1"
   width="360.92499"
   height="226.2"
   id="svg2"
   xml:space="preserve"><metadata
     id="metadata8"><rdf:RDF><cc:Work
         rdf:about=""><dc:format>image/svg+xml</dc:format><dc:type
           rdf:resource="http://purl.org/dc/dcmitype/StillImage" /><dc:title></dc:title></cc:Work></rdf:RDF></metadata><defs
     id="defs6"><clipPath
       id="clipPath18"><path
         d="m 0,0 2887,0 0,1809.65 -2887,0 L 0,0 z"
         id="path20" /></clipPath></defs><g
     transform="matrix(1.25,0,0,-1.25,0,226.2)"
     id="g10"><g
       transform="scale(0.1,0.1)"
       id="g12"><g
         id="g14"><g
           clip-path="url(#clipPath18)"
           id="g16"><path
             d="M 1416.44,343.559 C 1354.69,358.34 1340,369.379 1340,394.23 l 0,0.969 c 0,21.102 19.3,38.16 52.5,38.16 29.47,0 58.47,-11.488 87.53,-33.148 l 30.37,42.828 c -32.75,26.27 -70.01,40.59 -116.92,40.59 -64.05,0 -110.17,-38.27 -110.17,-93.551 l 0,-0.969 c 0,-59.379 38.66,-79.629 107.37,-96.168 59.84,-13.882 72.75,-26.281 72.75,-49.371 l 0,-0.91 c 0,-24.34 -22.13,-40.488 -57.1,-40.488 -40.1,0 -70.98,15.18 -101.82,41.848 l -34.06,-40.43 c 38.67,-34.641 85.21,-51.649 134.57,-51.649 67.63,0 114.99,35.95 114.99,96.289 l 0,0.969 c 0,53.41 -35.43,77.742 -103.57,94.36"
             id="path22"
             style="fill:#100f0d;fill-opacity:1;fill-rule:nonzero;stroke:none" /><path
             d="m 1818.56,479.031 -261.58,0 0,-52.551 102.26,0 0,-269.929 57.05,0 0,269.929 102.27,0 0,52.551"
             id="path24"
             style="fill:#100f0d;fill-opacity:1;fill-rule:nonzero;stroke:none" /><path
             d="m 1951.2,481.309 -141.86,-324.758 58.07,0 33.1,77.808 111.99,0 18.81,50.27 -110.04,0 55.28,128.941 109.2,-257.019 59.9,0 -141.91,324.758 -52.54,0"
             id="path26"
             style="fill:#100f0d;fill-opacity:1;fill-rule:nonzero;stroke:none" /><path
             d="m 2332.7,203.078 c -61.7,0 -106.41,51.594 -106.41,114.66 l 0,0.903 c 0,63.14 44.71,113.808 106.41,113.808 36.8,0 64.49,-16.148 90.16,-40.039 l 36.56,41.871 c -30.94,29.508 -66.76,50.16 -126.27,50.16 -97.64,0 -166.35,-74.972 -166.35,-166.703 l 0,-0.859 c 0,-92.59 70.12,-165.84 164.08,-165.84 60.3,0 97.15,22.121 130.82,57.102 l -36.34,36.91 c -27.64,-25.821 -53.07,-41.973 -92.66,-41.973"
             id="path28"
             style="fill:#100f0d;fill-opacity:1;fill-rule:nonzero;stroke:none" /><path
             d="m 2666.68,340.309 133.99,138.722 -69.55,0 -153.46,-162.152 0,162.152 -56.64,0 0,-322.48 56.64,0 0,93.558 50.33,51.532 110.12,-145.09 68.59,0 -140.02,183.758"
             id="path30"
             style="fill:#100f0d;fill-opacity:1;fill-rule:nonzero;stroke:none" /><path
             d="m 223.895,335.262 c -70.973,15.226 -87.528,32.238 -87.528,62.668 l 0,0.968 c 0,29 26.731,51.981 68.649,51.981 33.097,0 63.074,-10.629 93.046,-34.981 L 319.277,444 c -32.761,26.27 -66.379,39.629 -113.41,39.629 -61.195,0 -105.844,-37.301 -105.844,-88.027 l 0,-0.911 c 0,-52.953 34.016,-76.953 108.176,-93.05 67.739,-14.282 83.836,-31.282 83.836,-61.262 l 0,-0.957 c 0,-31.731 -28.496,-54.832 -71.836,-54.832 -44.703,0 -76.894,15.25 -110.566,45.621 L 87.0547,203.59 c 38.6753,-34.641 80.6483,-51.649 131.8363,-51.649 63.992,0 109.996,35.95 109.996,91.239 l 0,0.84 c 0,49.371 -33.102,75.589 -104.992,91.242"
             id="path32"
             style="fill:#100f0d;fill-opacity:1;fill-rule:nonzero;stroke:none" /><path
             d="m 515.496,481.309 -146.965,-324.758 37.367,0 38.332,85.199 148.559,0 12,32.75 -146.394,0 73.71,164.441 125.239,-282.39 39.242,0 -146.906,324.758 -34.184,0"
             id="path34"
             style="fill:#100f0d;fill-opacity:1;fill-rule:nonzero;stroke:none" /><path
             d="m 796.52,479.031 -36.403,0 0,-322.48 217.895,0 0,33.679 -181.492,0 0,288.801"
             id="path36"
             style="fill:#100f0d;fill-opacity:1;fill-rule:nonzero;stroke:none" /><path
             d="m 976.195,445.359 108.225,0 0,-288.808 36.8,0 0,288.808 108.3,0 0,33.672 -253.325,0 0,-33.672"
             id="path38"
             style="fill:#100f0d;fill-opacity:1;fill-rule:nonzero;stroke:none" /><path
             d="m 1797.45,1106.81 0,262.46 227.32,131.13 0,-262.32 -227.32,-131.27 z m -291.74,438.37 -6.77,-4.41 0.13,-6.94 0,-78.73 -115.36,-66.65 237.92,-137.4 -202.47,-116.71 -440.094,254.11 440.094,254.28 127.74,-73.67 -41.19,-23.88 z m 274.04,-145.15 -227.32,131.11 227.24,131.2 227.25,-131.2 -227.17,-131.11 z m -245.07,-57.63 0,158 227.24,-131.13 0,-262.46 -86.27,49.76 -0.66,97.48 -0.24,7.23 -6.42,3.89 -133.65,77.23 z m 107.08,-381.658 0.45,-25.965 21.88,13.953 213.2,133 0,-232.335 -440.22,-254.254 0,508.379 202.52,117.02 2.17,-259.798 z m 132.09,98.358 -96.85,-60.358 -0.98,116.628 94.71,-54.76 3.12,-1.51 z m -274.78,355.02 0,-51.18 -44.25,25.51 44.25,25.67 z m -537.836,-56.41 440.306,-254.19 0,-508.379 -440.306,254.195 0,508.374 z m 824.946,341.95 -6.19,3.14 -6.88,-3.14 -190.6,-110.09 -156.71,90.46 -6.2,2.91 -6.95,-2.91 -487.099,-281.28 0.078,-4.4 0.078,-558.01 -0.156,-6.485 6.797,-4.851 483.152,-278.965 3.5,-1.949 4.18,2.019 483.21,278.895 6.06,3.57 0.37,7.844 0,285.372 -9.1,5.31 149.84,86.64 6.66,4.85 0,322.41 -3.89,2.53 -270.15,156.13"
             id="path40"
             style="fill:#100f0d;fill-opacity:1;fill-rule:nonzero;stroke:none" /></g></g></g></g></svg>