<svg xmlns="http://www.w3.org/2000/svg" viewBox="0 0 350 356.48"><title>Sbug_Black</title><g id="Layer_2" data-name="Layer 2"><g id="Layer_1-2" data-name="Layer 1"><path d="M126.19,100.55c9.59-5.54,21.87-8.43,37.14-8.43q22.32,0,37.34,7.52,22.53,11.4,24.21,38.47h60.24q-1.65-47.82-35.54-73T167.68,40a185.31,185.31,0,0,0-41.49,4.33Z"/><path d="M267.86,199.77Q250.58,186.15,216,178l-52.64-12.42q-30.47-7.12-39.86-12.42-14.59-7.92-14.6-24c0-1,.24-1.84.31-2.78h-58c-.17,2.39-.34,4.79-.34,7.26q0,44.16,30.32,64.92Q99.1,211,147,221.55l32.47,7.13q28.52,6.1,41.66,14,13.13,8.15,13.12,23,0,25.46-26.8,34.8-14.13,4.89-36.78,4.89-37.82,0-53.41-18.52-8.51-10.17-11.42-30.73H46q0,46.8,33.94,73.56t93.19,26.77q58,0,89.79-27.16T294.68,261Q294.68,220.93,267.86,199.77Z"/><rect width="79.44" height="79.44"/><path d="M335.71,326.13a7.69,7.69,0,0,0,1.33-4.61,9,9,0,0,0-.66-3.58,6.71,6.71,0,0,0-1.93-2.59,8.5,8.5,0,0,0-3.12-1.58,15,15,0,0,0-4.2-.54h-9.65v27.44h4.76V330.1h5.32l5.5,10.57h5.11v-.24L332,329A8.51,8.51,0,0,0,335.71,326.13ZM331,325a4.43,4.43,0,0,1-1.6.94,6.66,6.66,0,0,1-2.25.34h-4.9v-9.2h4.89a7.2,7.2,0,0,1,2.32.33,4.16,4.16,0,0,1,1.6,1,3.72,3.72,0,0,1,.92,1.47,5.76,5.76,0,0,1,.3,1.91,5.17,5.17,0,0,1-.32,1.83A3.76,3.76,0,0,1,331,325Z"/><path d="M326.81,303.86A23.19,23.19,0,1,0,350,327,23.21,23.21,0,0,0,326.81,303.86Zm0,42.51A19.33,19.33,0,1,1,346.14,327,19.36,19.36,0,0,1,326.81,346.37Z"/></g></g></svg>