<?xml version="1.0" encoding="utf-8"?>
<!-- Generator: Adobe Illustrator 18.1.1, SVG Export Plug-In . SVG Version: 6.00 Build 0)  -->
<svg version="1.1" id="horizontal" xmlns="http://www.w3.org/2000/svg" xmlns:xlink="http://www.w3.org/1999/xlink" x="0px" y="0px"
	 viewBox="204 119 212 60" enable-background="new 204 119 212 60" xml:space="preserve">
<g id="saltStack_x5F_icon_x5F_thicker_2_">
	<g>
		<path d="M229.4,127.7c0.6-0.5,1.2-0.4,1.9,0c1.9,1.2,3.8,2.2,5.8,3.3c0.2,0.1,0.5,0.1,0.7,0c1.9-1.1,3.8-2.1,5.7-3.3
			c0.6-0.4,1.2-0.5,1.8,0c2.9,1.7,5.8,3.4,8.7,5c0.6,0.3,0.9,0.8,0.9,1.5c0,3.3,0,6.7,0,10c0,0.7-0.2,1.1-0.8,1.4
			c-1.7,0.9-3.4,2-5.1,3c1.2,1,1.2,1,1.2,2.6c0,3.1,0,6.3,0,9.4c0,0.6-0.2,1-0.8,1.3c-6,3.4-11.9,6.9-17.8,10.3
			c-0.8,0.5-1.5,0.5-2.3,0c-5.9-3.5-11.9-6.9-17.9-10.3c-0.6-0.3-0.8-0.8-0.8-1.4c0-7,0-14,0-21c0-0.6,0.3-1,0.8-1.4L229.4,127.7z
			 M229.3,151.2c0-0.4-0.1-0.6-0.5-0.8l-16.3-9.4v18.7c0,0.5,0.2,0.7,0.5,0.9l16.2,9.3L229.3,151.2z M247.5,160.6
			c0.4-0.2,0.5-0.5,0.5-0.9l0-7.8l-7.5,4.3c-1.1,0.6-1.8,0.2-1.8-1c0-2.7,0-5.3,0-8c0-0.2,0-0.4,0-0.7l-6.9,3.9
			c-0.4,0.2-0.4,0.5-0.4,0.8v18.7L247.5,160.6z M229.9,148.6c0.3,0.2,0.5,0.2,0.9,0c1.3-0.8,2.7-1.5,4-2.3c0.9-0.6,1.9-1.1,2.9-1.7
			c-0.4-0.2-0.7-0.4-1-0.6c-2.2-1.3-4.5-2.6-6.7-3.9c-0.9-0.5-0.8-1.4,0-1.9c1.2-0.7,2.3-1.4,3.5-2c0.4-0.2,0.6-0.4,0.5-0.9
			c0-0.2,0-0.3,0-0.5c-0.1-1,0-1.8,1.1-2.2c0,0,0.1-0.1,0.1-0.2c-1.5-0.9-3-1.7-4.4-2.6c-0.4-0.2-0.6-0.2-1,0l-16.2,9.3L229.9,148.6
			z M251.7,133.8c-0.1-0.1-0.2-0.1-0.2-0.1c-2.2-1.3-4.5-2.6-6.8-3.9c-0.1-0.1-0.5-0.1-0.7,0c-2,1.1-4,2.3-6,3.4
			c-0.3,0.2-0.6,0.3-0.9,0.6c0.1,0.1,0.2,0.1,0.2,0.2c2.2,1.3,4.5,2.6,6.8,3.9c0.1,0.1,0.5,0,0.7-0.1c1-0.5,1.9-1.1,2.9-1.6
			C249,135.4,250.3,134.6,251.7,133.8z M252.4,144.2c0.2-0.1,0.3-0.5,0.3-0.7c0-2.4,0-4.9,0-7.4c0-0.1,0-0.3,0-0.5
			c-0.1,0-0.1,0-0.2,0c-2.2,1.3-4.5,2.6-6.8,3.9c-0.2,0.1-0.3,0.5-0.3,0.7v7.9L252.4,144.2z M236,135.6c0,1.8,0,3.5,0,5.2
			c0,0.4,0.1,0.6,0.5,0.8c1.2,0.7,2.4,1.4,3.6,2.1c0.5,0.3,0.7,0.6,0.7,1.2c0,0.5,0,1,0,1.5c0,0.1,0,0.4,0.1,0.4
			c0.8,0.5,1.6,0.9,2.4,1.4c0-0.2,0.1-0.3,0.1-0.4c0-2.6,0-5.1,0-7.7c0-0.2-0.2-0.4-0.4-0.6L236,135.6z M240.8,149.1
			c0,1.5,0,3,0,4.5c2.1-1.2,4.1-2.4,6.1-3.6c0-0.1-0.1-0.2-0.1-0.2c-0.1,0.1-0.3,0.1-0.4,0.2c-0.4,0.2-0.8,0.4-1.2,0.7
			c-0.5,0.3-1,0.4-1.5,0C242.7,150.2,241.8,149.7,240.8,149.1z M232.4,139.2c0.6,0.3,1,0.6,1.5,0.9c0-0.6,0-1.2,0-1.8
			C233.4,138.6,232.9,138.9,232.4,139.2z"/>
	</g>
</g>
<polygon points="394.1,148.9 401.3,141.5 396.8,141.5 389.5,149.1 389.5,141.5 385.9,141.5 385.9,158.5 389.5,158.5 389.5,153.6 
	391.7,151.4 397,158.5 401.5,158.5 "/>
<path d="M381.2,153.4c-1.4,1.2-2.6,2-4.4,2c-2.8,0-5-2.3-5-5.5c0-3.1,2.1-5.4,5-5.4c1.5,0,2.9,0.6,4.3,1.9l0.3,0.3l2.4-2.7l-0.3-0.3
	c-1.4-1.3-3.2-2.7-6.7-2.7c-5,0-8.8,3.8-8.8,8.9c0,4.9,3.8,8.8,8.7,8.8c2.8,0,4.9-0.9,6.9-3l0.3-0.3l-2.4-2.4L381.2,153.4z"/>
<path d="M357.1,141.3l-7.5,17.2h3.8l1.7-3.9h4.6l1.2-3.2l3,7.2h3.9l-7.5-17.2H357.1z M356.4,151.3l2.2-5.2l2.2,5.2H356.4z"/>
<polygon points="351,141.5 337,141.5 337,144.9 342.2,144.9 342.2,158.5 345.9,158.5 345.9,144.9 351,144.9 "/>
<path d="M330.4,148.3c-3.2-0.8-3.6-1.3-3.6-2.2c0-0.9,0.9-1.5,2.3-1.5s2.8,0.5,4.2,1.6l0.3,0.2l2-2.8l-0.3-0.2
	c-1.8-1.4-3.8-2.1-6.1-2.1c-3.5,0-6,2.1-6,5.2c0,3.2,2.1,4.4,5.7,5.2c3.1,0.8,3.4,1.3,3.4,2.2c0,1-1,1.7-2.5,1.7
	c-1.8,0-3.3-0.6-4.9-2l-0.3-0.3l-2.2,2.6l0.3,0.3c2,1.8,4.4,2.7,7.1,2.7c3.8,0,6.2-2.1,6.2-5.3C335.9,150.1,333.2,149,330.4,148.3z"
	/>
<polygon points="307.6,143.9 313,143.9 313,158.5 315.7,158.5 315.7,143.9 321.2,143.9 321.2,141.5 307.6,141.5 "/>
<polygon points="299.2,141.5 296.6,141.5 296.6,158.5 308.4,158.5 308.4,156.1 299.2,156.1 "/>
<path d="M284.4,141.3l-7.8,17.2h2.7l2-4.3h6.6l0.8-2.2l2.9,6.5h2.9l-7.8-17.2H284.4z M282.3,151.8l3.1-7l3.1,7H282.3z"/>
<path d="M269.9,148.7c-3.8-0.8-4.1-1.7-4.1-2.9c0-1.3,1.3-2.2,3.1-2.2c1.7,0,3.1,0.5,4.5,1.7l0.3,0.3l1.5-2l-0.3-0.2
	c-1.8-1.5-3.6-2.1-6-2.1c-3.3,0-5.7,2-5.7,4.9c0,3.2,2.3,4.4,5.8,5.1c3.6,0.8,3.9,1.6,3.9,2.8c0,1.4-1.3,2.4-3.3,2.4
	c-2.1,0-3.6-0.6-5.4-2.2l-0.3-0.3l-1.6,2l0.3,0.3c2.1,1.8,4.3,2.7,6.9,2.7c3.5,0,6-2.1,6-5.1C275.5,151.1,273.9,149.6,269.9,148.7z"
	/>
</svg>
