<?xml version="1.0" encoding="utf-8"?>
<!-- Generator: Adobe Illustrator 18.1.1, SVG Export Plug-In . SVG Version: 6.00 Build 0)  -->
<svg version="1.1" id="Layer_1" xmlns="http://www.w3.org/2000/svg" xmlns:xlink="http://www.w3.org/1999/xlink" x="0px" y="0px"
	 viewBox="0 0 800 800" enable-background="new 0 0 800 800" xml:space="preserve">
<g id="saltStack_x5F_icon_x5F_thicker_2_">
	<g>
		<path fill="#FFFFFF" d="M370,210.7c5.4-3.9,10.4-3.4,16.1,0.1c16.1,9.7,32.5,19,48.9,28.2c1.5,0.9,4.5,0.5,6.2-0.5
			c16.1-9.1,32.1-18.3,48-27.7c5.4-3.2,10-3.8,15.7-0.4c24.3,14.4,48.9,28.5,73.5,42.5c5.2,3,7.5,6.7,7.4,12.8
			c-0.2,28.5-0.2,57,0,85.5c0,5.7-2,9.2-7,12c-14.5,8.1-28.8,16.6-43.6,25.1c10.4,8.5,10.4,8.5,10.4,21.8c0,26.7-0.1,53.3,0.1,80
			c0,5.1-2,8.3-6.4,10.8c-50.6,29.1-101.2,58.1-151.6,87.5c-7,4.1-12.3,4.3-19.5,0.1c-50.3-29.5-100.9-58.6-151.5-87.6
			c-4.8-2.7-6.8-6.4-6.8-11.7c0-59.5,0-119,0-178.4c0-5.2,2.1-8.7,6.6-11.3L370,210.7z M369.6,409.9c0-3.4-1-5.4-4-7.1l-138.2-79.6
			l-0.1,158.6c0,3.9,1.2,5.9,4.5,7.8l137.3,79L369.6,409.9z M524.2,489.4c3.1-1.8,4.5-3.7,4.4-7.4l-0.4-66.6l-64.1,36.6
			c-9.2,5.3-15.3,1.8-15.3-8.7c0-22.7,0-45.3,0-68c0-1.8-0.1-3.5-0.3-5.8l-58.6,33.3c-3.1,1.7-3.5,3.9-3.5,6.9l0,158.8L524.2,489.4z
			 M374.4,388.1c2.6,1.5,4.6,1.6,7.2,0c11.1-6.6,22.5-13,33.7-19.5c8-4.6,16-9.3,24.7-14.4c-3.3-2-5.8-3.5-8.4-4.9
			c-19-11-38-21.9-56.9-33c-7.2-4.2-7.1-11.9,0.1-16.2c9.9-5.8,19.8-11.7,29.8-17.2c3.2-1.8,4.8-3.8,4.3-7.4c-0.2-1.5,0.1-3-0.1-4.5
			c-0.9-8.4,0.5-15.7,9.5-19.2c0.4-0.1,0.6-0.7,1.1-1.4c-12.6-7.3-25.2-14.3-37.5-21.8c-3.1-1.9-5.3-1.6-8.1,0.1L236.6,308
			L374.4,388.1z M559.3,262.3c-1.2-0.8-1.6-1.1-2.1-1.4c-19.1-11-38.2-22.1-57.5-33c-1.4-0.8-4.2-0.5-5.7,0.3
			c-17,9.7-34,19.5-50.9,29.3c-2.4,1.4-4.7,2.8-7.7,4.6c1.1,0.7,1.6,1,2,1.2c19.1,11.1,38.2,22.2,57.5,33.1c1.4,0.8,4.2,0.4,5.8-0.5
			c8.3-4.5,16.5-9.3,24.7-14.1C536.5,275.6,547.5,269.2,559.3,262.3z M565.7,350.3c1.5-0.9,2.7-3.7,2.7-5.6
			c0.2-20.8,0.1-41.7,0.1-62.5c0-1.4-0.3-2.7-0.4-4c-0.9,0-1.3-0.1-1.5,0c-19.2,11-38.4,22-57.4,33.3c-1.5,0.9-2.6,3.7-2.6,5.6
			l-0.1,67.2L565.7,350.3z M426.4,277.4c0,15.5,0.1,29.9-0.1,44.4c0,3.4,1.2,5.1,4,6.6c10.2,5.7,20.1,11.7,30.3,17.4
			c4.2,2.3,5.9,5.6,5.8,10.1c-0.1,4.3-0.1,8.7,0,13c0.1,1.3,0.4,3.3,1.4,3.9c6.6,4.1,13.4,7.8,20.5,12c0.3-1.5,0.5-2.3,0.5-3
			c0-21.8,0.1-43.7-0.1-65.5c0-1.6-1.7-3.8-3.3-4.8L426.4,277.4z M466.9,392.6c0,13,0,25.1,0,38.1c17.8-10.3,34.9-20.2,51.9-30.1
			c-0.3-0.6-0.6-1.1-0.9-1.7c-1.2,0.5-2.5,0.8-3.6,1.5c-3.5,1.9-7,3.8-10.3,6c-4.4,2.9-8.3,3.1-12.9,0.2
			C483.3,401.7,475.3,397.4,466.9,392.6z M395.5,308.2c4.8,2.8,8.7,5,13,7.5c0-5.4,0-10,0-15.2C404.1,303.1,400.3,305.4,395.5,308.2
			z"/>
	</g>
</g>
</svg>
